<svg version="1.1" id="arrow_more" xmlns="http://www.w3.org/2000/svg" xmlns:xlink="http://www.w3.org/1999/xlink" x="0px" y="0px"
	 viewBox="0 0 246 423.5" style="enable-background:new 0 0 246 423.5;" xml:space="preserve">
<g>
	<g>
		<path d="M239.7,196.5L49.6,6.3c-4-4-9.4-6.3-15.1-6.3S23.3,2.2,19.3,6.3L6.4,19.1c-8.4,8.4-8.4,21.9,0,30.3l162.3,162.3L6.3,374.1
			c-4,4-6.3,9.4-6.3,15.1c0,5.7,2.2,11.1,6.3,15.2l12.8,12.8c4,4,9.4,6.3,15.1,6.3s11.1-2.2,15.1-6.3l190.4-190.4
			c4-4,6.3-9.4,6.2-15.2C246,205.9,243.8,200.5,239.7,196.5z"/>
	</g>
</g>
</svg>
