<svg version="1.1" id="arrow_down" xmlns="http://www.w3.org/2000/svg" xmlns:xlink="http://www.w3.org/1999/xlink" x="0px" y="0px"
	 viewBox="0 0 423.5 245.9" style="enable-background:new 0 0 423.5 245.9;" xml:space="preserve">
<g>
	<g>
		<path d="M227,239.7L417.2,49.6c4-4,6.3-9.4,6.3-15.1s-2.2-11.2-6.3-15.2L404.4,6.4C396-2,382.5-2,374.1,6.4L211.8,168.7L49.4,6.3
			C45.4,2.3,40,0,34.3,0c-5.7,0-11.1,2.2-15.2,6.3L6.3,19.1c-4,4-6.3,9.4-6.3,15.1c0,5.7,2.2,11.1,6.3,15.1l190.4,190.4
			c4,4,9.4,6.3,15.2,6.2C217.6,246,223,243.8,227,239.7z"/>
	</g>
</g>
</svg>
