<svg version="1.1" id="arrow_right" xmlns="http://www.w3.org/2000/svg" xmlns:xlink="http://www.w3.org/1999/xlink" x="0px" y="0px"
	 viewBox="0 0 99.4 185.7" style="enable-background:new 0 0 99.4 185.7;" xml:space="preserve">
<g>
	<g>
		<path d="M98.2,89.9L9.5,1.2C8.7,0.4,7.7,0,6.6,0S4.4,0.4,3.7,1.2L1.2,3.6c-1.6,1.6-1.6,4.2,0,5.8l83.4,83.4L1.2,176.2
			C0.4,177,0,178,0,179.1c0,1.1,0.4,2.1,1.2,2.9l2.5,2.5c0.8,0.8,1.8,1.2,2.9,1.2s2.1-0.4,2.9-1.2l88.7-88.7
			c0.8-0.8,1.2-1.8,1.2-2.9C99.4,91.7,98.9,90.7,98.2,89.9z"/>
	</g>
</g>
</svg>
