<svg version="1.1" id="arrow_left" xmlns="http://www.w3.org/2000/svg" xmlns:xlink="http://www.w3.org/1999/xlink" x="0px" y="0px"
	 viewBox="0 0 99.4 185.7" style="enable-background:new 0 0 99.4 185.7;" xml:space="preserve">
<g>
	<g>
		<path d="M1.2,95.7l88.7,88.7c0.8,0.8,1.8,1.2,2.9,1.2c1.1,0,2.1-0.4,2.9-1.2l2.5-2.5c1.6-1.6,1.6-4.2,0-5.8L14.8,92.8L98.2,9.4
			c0.8-0.8,1.2-1.8,1.2-2.9c0-1.1-0.4-2.1-1.2-2.9l-2.5-2.5C95,0.4,93.9,0,92.8,0c-1.1,0-2.1,0.4-2.9,1.2L1.2,89.9
			C0.4,90.7,0,91.7,0,92.8C0,93.9,0.4,95,1.2,95.7z"/>
	</g>
</g>
</svg>
