<svg version="1.1" id="contrast_version" xmlns="http://www.w3.org/2000/svg" xmlns:xlink="http://www.w3.org/1999/xlink" x="0px" y="0px"
	 viewBox="0 0 61 25" style="enable-background:new 0 0 61 25;" xml:space="preserve">
<path d="M59.5,10h-1.8C56.6,4.2,51.5,0,45.6,0c-5.7,0-10.7,3.8-12.1,9.2c-1.8-1.2-4.1-1.2-5.9,0C26.1,3.8,21.2,0,15.6,0
	C9.2,0,3.9,4.8,3.1,11H1.5C0.7,11,0,11.7,0,12.5S0.7,14,1.5,14h1.6c0.8,6.2,6.1,11,12.5,11c6.6,0,12.1-5.4,12.4-12
	c0.7-1.1,1.6-1.7,2.5-1.7c0.9,0,1.8,0.6,2.5,1.7c0.3,6.6,5.9,12,12.6,12c6.7,0,12.2-5.3,12.4-12h1.5c0.8,0,1.5-0.7,1.5-1.5
	S60.3,10,59.5,10z M55,12.5c0,5.3-4.1,9.5-9.4,9.5c-5.3,0-9.6-4.3-9.6-9.5S40.3,3,45.6,3C50.9,3,55,7.2,55,12.5z M25,12.5
	c0,5.3-4.1,9.5-9.4,9.5C10.3,22,6,17.7,6,12.5S10.3,3,15.6,3C20.9,3,25,7.2,25,12.5z"/>
</svg>
