<svg version="1.1" id="menu" xmlns="http://www.w3.org/2000/svg" xmlns:xlink="http://www.w3.org/1999/xlink" x="0px" y="0px"
	 viewBox="0 0 19.7 17.5" style="enable-background:new 0 0 19.7 17.5;" xml:space="preserve">
<g>
	<path d="M18.6,0H1.1C0.4,0,0,0.4,0,1.1v0.6c0,0.6,0.4,1.1,1.1,1.1h17.6c0.6,0,1.1-0.4,1.1-1.1V1.1C19.7,0.4,19.3,0,18.6,0z"/>
	<path d="M18.6,7.4H1.1C0.4,7.4,0,7.8,0,8.4v0.6c0,0.6,0.4,1.1,1.1,1.1h17.6c0.6,0,1.1-0.4,1.1-1.1V8.4C19.7,7.8,19.3,7.4,18.6,7.4z
		"/>
	<path d="M18.6,14.8H1.1c-0.6,0-1.1,0.4-1.1,1.1v0.6c0,0.6,0.4,1.1,1.1,1.1h17.6c0.6,0,1.1-0.4,1.1-1.1v-0.6
		C19.7,15.2,19.3,14.8,18.6,14.8z"/>
</g>
</svg>
