<svg version="1.1" id="print" xmlns="http://www.w3.org/2000/svg" xmlns:xlink="http://www.w3.org/1999/xlink" x="0px" y="0px"
	 viewBox="0 0 485.2 485.2" style="enable-background:new 0 0 485.2 485.2;" xml:space="preserve">
<g>
	<g>
		<rect x="151.6" y="363.9" width="151.6" height="30.3"/>
		<path d="M121.3,30.3h242.6V91h30.3V30.3c0-16.7-13.6-30.3-30.3-30.3H121.3C104.6,0,91,13.6,91,30.3V91h30.3V30.3z"/>
		<rect x="151.6" y="303.3" width="181.9" height="30.3"/>
		<path d="M454.9,121.3H30.3C13.6,121.3,0,134.9,0,151.6v182c0,16.8,13.6,30.3,30.3,30.3H91v91c0,16.8,13.6,30.3,30.3,30.3h242.6
			c16.8,0,30.3-13.6,30.3-30.3v-91h60.7c16.8,0,30.3-13.6,30.3-30.3v-182C485.2,134.9,471.6,121.3,454.9,121.3z M363.9,454.9H121.3
			v-182h242.6L363.9,454.9L363.9,454.9z M424.6,212.3c-16.8,0-30.3-13.6-30.3-30.3c0-16.7,13.6-30.3,30.3-30.3
			c16.8,0,30.3,13.6,30.3,30.3C454.9,198.7,441.3,212.3,424.6,212.3z"/>
	</g>
</g>
</svg>
