<svg version="1.1" id="search" xmlns="http://www.w3.org/2000/svg" xmlns:xlink="http://www.w3.org/1999/xlink" x="0px" y="0px"
	 viewBox="0 0 500 500" style="enable-background:new 0 0 500 500;" xml:space="preserve">
<path d="M492.5,456.7L377.9,342C407,304.9,423,258.8,423,211.5C423,94.9,328.1,0,211.5,0C155,0,101.9,22,61.9,62
	C22,101.9,0,155,0,211.5C0,268,22,321.1,61.9,361c39.9,40,93.1,62,149.6,62c47.3,0,93.4-15.9,130.4-45l114.6,114.5
	c5,5,11.5,7.4,18,7.4c6.5,0,13-2.5,18-7.4c4.8-4.8,7.5-11.1,7.5-18C500,467.8,497.3,461.4,492.5,456.7z M211.5,371.9
	C123,371.9,51,299.9,51,211.5C51,123,123,51,211.5,51S372,123,372,211.5C372,299.9,300,371.9,211.5,371.9z"/>
</svg>
