<svg version="1.1" id="work-2"
	 xmlns="http://www.w3.org/2000/svg" xmlns:xlink="http://www.w3.org/1999/xlink" x="0px" y="0px" viewBox="0 0 494.6 490"
	 style="enable-background:new 0 0 494.6 490;" xml:space="preserve">
<g>
	<path d="M483,0H11.6C5.2,0,0,5.2,0,11.6s5.2,11.6,11.6,11.6h16.8v286.2c0,15.4,12.6,28,28,28h383.7c15.4,0,28-12.6,28-28V23.2H483
		c6.4,0,11.6-5.2,11.6-11.6S489.4,0,483,0z M444.9,23.2v286.2c0,2.7-2.2,4.9-4.9,4.9H56.4c-2.7,0-4.9-2.2-4.9-4.9V23.2H444.9z"/>
	<path d="M260,400.7v-23.5h33.7c6.4,0,11.6-5.2,11.6-11.6s-5.2-11.6-11.6-11.6h-90.4c-6.4,0-11.6,5.2-11.6,11.6s5.2,11.6,11.6,11.6
		h33.5v23.5l-69.6,69.6c-4.5,4.5-4.5,11.8,0,16.3c2.2,2.2,5.1,3.4,8.2,3.4s6-1.2,8.2-3.4l53.2-53.2v45.1c0,6.4,5.2,11.6,11.6,11.6
		c6.4,0,11.6-5.2,11.6-11.6v-45.1l52.9,52.9c2.2,2.2,5.1,3.4,8.2,3.4c3.1,0,6-1.2,8.2-3.4c4.5-4.5,4.5-11.8,0-16.3L260,400.7z"/>
	<path d="M126.1,271.8h55.2c6.4,0,11.6-5.2,11.6-11.6v-81c0-6.4-5.2-11.6-11.6-11.6h-55.1c-6.4,0-11.6,5.2-11.6,11.6v81
		C114.6,266.7,119.7,271.8,126.1,271.8z M169.7,190.9v57.9h-32v-57.9H169.7z"/>
	<path d="M313.3,271.8h55.1c6.4,0,11.6-5.2,11.6-11.6V132.5c0-6.4-5.2-11.6-11.6-11.6h-55.1c-6.4,0-11.6,5.2-11.6,11.6v127.9
		C301.8,266.8,306.9,271.8,313.3,271.8z M324.9,248.7V144h32v104.7H324.9z"/>
	<path d="M219.7,271.8h55.1c6.4,0,11.6-5.2,11.6-11.6v-183c0-6.4-5.2-11.6-11.6-11.6h-55.1c-6.4,0-11.6,5.2-11.6,11.6l0,183.1
		C208.2,266.8,213.3,271.8,219.7,271.8z M263.3,88.7v160h-32v-160H263.3z"/>
</g>
</svg>
