<svg version="1.1" id="work-5" xmlns="http://www.w3.org/2000/svg" xmlns:xlink="http://www.w3.org/1999/xlink" x="0px" y="0px"
	 viewBox="0 0 441 393" style="enable-background:new 0 0 441 393;" xml:space="preserve">
<g>
	<g>
		<path class="st0" d="M416.5,120.5h-160c-13.3,0-24,10.7-24,24v224c0,13.3,10.7,24,24,24h160c13.3,0,24-10.7,24-24v-224
			C440.5,131.2,429.8,120.5,416.5,120.5z M328.5,376.5h-72c-4.4,0-8-3.6-8-8v-56h80V376.5z M328.5,296.5h-80v-64h80V296.5z
			 M424.5,368.5c0,4.4-3.6,8-8,8h-72v-64h80V368.5z M424.5,296.5h-80v-64h80V296.5z M424.5,216.5h-176v-72c0-4.4,3.6-8,8-8h160
			c4.4,0,8,3.6,8,8V216.5z"/>
	</g>
</g>
<g>
	<g>
		<path class="st0" d="M400.5,152.5h-128c-4.4,0-8,3.6-8,8v32c0,4.4,3.6,8,8,8h128c4.4,0,8-3.6,8-8v-32
			C408.5,156.1,404.9,152.5,400.5,152.5z M392.5,184.5h-112v-16h112V184.5z"/>
	</g>
</g>
<g>
	<g>
		<polygon class="st0" points="296.5,256.5 296.5,240.5 280.5,240.5 280.5,256.5 264.5,256.5 264.5,272.5 280.5,272.5 280.5,288.5 
			296.5,288.5 296.5,272.5 312.5,272.5 312.5,256.5 		"/>
	</g>
</g>
<g>
	<g>
		<rect x="360.5" y="256.5" class="st0" width="48" height="16"/>
	</g>
</g>
<g>
	<g>
		<polygon class="st0" points="311.1,334.2 299.8,322.8 288.5,334.2 277.2,322.8 265.9,334.2 277.2,345.5 265.9,356.8 277.2,368.1 
			288.5,356.8 299.8,368.1 311.1,356.8 299.8,345.5 		"/>
	</g>
</g>
<g>
	<g>
		<rect x="360.5" y="336.5" class="st0" width="48" height="16"/>
	</g>
</g>
<g>
	<g>
		<rect x="376.5" y="356.5" class="st0" width="16" height="8"/>
	</g>
</g>
<g>
	<g>
		<rect x="376.5" y="324.5" class="st0" width="16" height="8"/>
	</g>
</g>
<g>
	<g>
		<path class="st0" d="M300.5,0.5h-212v0.1c-2.1,0-4.1,0.8-5.7,2.3l-80,80c-1.5,1.5-2.3,3.5-2.3,5.7H0.5v288c0,8.8,7.2,16,16,16h200
			v-16h-38v-24h16c4.4,0,8-3.6,8-8v-40c0-4.4-3.6-8-8-8h-16v-24h16c4.4,0,8-3.6,8-8v-40c0-4.4-3.6-8-8-8h-0.2c-39.8,0-58.8,0-95.6,0
			H64.5c-4.4,0-8,3.6-8,8v32h-16c-4.4,0-8,3.6-8,8v40c0,4.4,3.6,8,8,8h16v24h-16c-4.4,0-8,3.6-8,8v32h-16v-280h64
			c8.8,0,16-7.2,16-16v-64h204v88h16v-88C316.5,7.7,309.3,0.5,300.5,0.5z M186.5,312.5v24h-114v-24H186.5z M72.5,232.5h114v24h-114
			V232.5z M48.5,296.5v-24h114v24h-98H48.5z M48.5,352.5h114v24h-114V352.5z M80.5,80.5H27.8l52.7-52.7V80.5z"/>
	</g>
</g>
</svg>
