<svg version="1.1" id="work-3" xmlns="http://www.w3.org/2000/svg" xmlns:xlink="http://www.w3.org/1999/xlink" x="0px" y="0px"
	 viewBox="0 0 582 582" style="enable-background:new 0 0 582 582;" xml:space="preserve">
<g id="surface1">
	<path d="M506.8,180.7h-65.3v-50.3H567c0,0,0,0,0,0c8.3,0,15-6.7,15-15c0-4.4-1.9-8.3-4.9-11.1L548,65.2l29.6-39.6
		c4.3-4.3,5.6-10.7,3.3-16.3C578.5,3.7,573.1,0,567,0H426.5c-8.3,0-15,6.7-15,15v165.7h-37.1c-30.4,0-55.2,24.8-55.2,55.2v31.3
		c-7.6-3.9-16.1-6.1-25.2-6.1H268c-30.4,0-55.2,24.7-55.2,55.2v31.3c-7.6-3.9-16.1-6.1-25.2-6.1h-26.1c-30.4,0-55.2,24.7-55.2,55.2
		v31.3c-7.6-3.9-16.1-6.1-25.2-6.1H55.2C24.7,421.7,0,446.4,0,476.8V567c0,8.3,6.7,15,15,15h532c8.3,0,15-6.7,15-15V235.8
		C562,205.4,537.2,180.7,506.8,180.7z M441.5,30h89.3l-14.6,24.6c-2.8,2.8-4.4,6.6-4.4,10.6c0,4,1.6,7.8,4.4,10.6l14.6,24.6h-89.3
		V30z M30,476.8c0-13.9,11.3-25.2,25.2-25.2h26.1c13.9,0,25.2,11.3,25.2,25.2V552H30V476.8z M136.4,476.8v-80.3
		c0-13.9,11.3-25.2,25.2-25.2h26.1c13.9,0,25.2,11.3,25.2,25.2V552h-76.4V476.8z M242.8,396.5v-80.3c0-13.9,11.3-25.2,25.2-25.2H294
		c13.9,0,25.2,11.3,25.2,25.2V552h-76.4V396.5z M532,552H349.2V235.8c0-13.9,11.3-25.2,25.2-25.2h132.5c13.9,0,25.2,11.3,25.2,25.2
		V552z"/>
</g>
</svg>
