<svg version="1.1" id="work-1" xmlns="http://www.w3.org/2000/svg" xmlns:xlink="http://www.w3.org/1999/xlink" x="0px" y="0px"
	 viewBox="0 0 60.9 57" style="enable-background:new 0 0 60.9 57;" xml:space="preserve">
<path d="M60.5,21.6L60.5,21.6c-0.3-0.4-0.8-0.6-1.3-0.6H57V7.3C57,6,56,5,54.7,5H24.3L22,1.1C21.6,0.4,20.9,0,20.1,0H6.3
	C5,0,4,1,4,2.3V21H1.8c-0.5,0-1,0.2-1.3,0.6C0.1,22-0.1,22.5,0,23l4.9,32.5C5.1,56.3,5.8,57,6.7,57h47.5c0.9,0,1.6-0.6,1.8-1.5
	L60.9,23C61,22.5,60.8,22,60.5,21.6z M50,19v2H11v-2H50z M14,16v-2h33v2H14z M50,16v-5H11v5H8v5H7V3h12.7L22,6.9
	C22.4,7.6,23.1,8,23.9,8H54v13h-1v-5H50z M7.7,54L3.2,24h54.5l-4.5,30H7.7z"/>
</svg>
