<svg xmlns="http://www.w3.org/2000/svg" width="166" height="57">
  <defs>
    <clipPath id="a">
      <path d="M-6 58.998h175.675V-2.58H-6z"/>
    </clipPath>
  </defs>
  <path d="M44.408 56.72a2.9 2.9 0 01-.83-.134v-.84c.199.066.44.108.672.108.481 0 .796-.182 1.028-.648l.108-.216-2.356-4.2h1.054l1.783 3.326 1.485-3.326h1.028l-2.106 4.499c-.515 1.106-1.178 1.43-1.866 1.43M54.677 50.79v5.821h-.946v-4.948h-1.925c-.223 2.577-.456 5.023-2.024 5.03a1.87 1.87 0 01-.572-.099v-.873c.116.042.225.057.398.057 1.02-.032 1.128-2.66 1.31-4.988zM61.436 56.611v-3.626c0-.208 0-.432.008-.631l-3.126 4.257h-.888V50.79h.946v3.618c0 .216 0 .44-.01.64l3.128-4.258h.888v5.821zM70.072 50.79v5.821h-.945v-2.478h-3.061v2.478h-.946V50.79h.946v2.47h3.06v-2.47zM72.17 56.611l2.456-5.821h1.036l2.448 5.821h-.997l-.513-1.256h-2.912l-.515 1.256zm1.842-2.087h2.255l-1.02-2.486a5.857 5.857 0 01-.108-.324c-.04.14-.075.232-.107.324zM82.274 50.79c1.377 0 2.48.432 2.48 1.913 0 1.48-1.103 1.911-2.48 1.911h-1.128v1.996H80.2v-5.82zm-1.128.864v2.096h1.173c.793 0 1.463-.2 1.463-1.047 0-.849-.661-1.049-1.463-1.049zM93.161 50.79v5.821h-.945v-4.074l-1.833 2.76h-.564l-1.833-2.77v4.084h-.946V50.79h.854l2.207 3.334 2.206-3.334zM95.25 56.611l2.455-5.821h1.037l2.448 5.821h-.997l-.513-1.256h-2.912l-.514 1.256zm1.842-2.087h2.255l-1.02-2.486c-.033-.092-.066-.183-.108-.324-.04.14-.074.232-.107.324zM105.353 50.79c1.378 0 2.48.432 2.48 1.913 0 1.48-1.102 1.911-2.48 1.911h-1.127v1.996h-.946v-5.82zm-1.127.864v2.096h1.173c.793 0 1.463-.2 1.463-1.047 0-.849-.661-1.049-1.463-1.049zM110.12 56.611V50.79h.946v2.428h1.144l1.618-2.428h1.07l-1.925 2.836 2.074 2.985h-1.07l-1.75-2.52h-1.161v2.52zM121.078 50.79v.864h-3.053v1.589h2.804v.865h-2.804v1.638h3.103v.865h-4.048V50.79zM127.747 50.79v.873h-1.917v4.948h-.945v-4.948h-1.925v-.873z"/>
  <g clip-path="url(#a)">
    <path d="M133.18 54.94h3.77v-2.11h-3.77z"/>
  </g>
  <g clip-path="url(#a)">
    <path d="M26.83 54.94h3.77v-2.11h-3.77z"/>
  </g>
  <g clip-path="url(#a)">
    <path d="M10.517 39.93c-.235 0-1.413.395-1.65 0-.177-.167 0-1.461 0-2.305-.177-4.05-.177-7.086-.177-10.74V4.838c0-.17-1.001.225-1.177.225H4.272c0 2.53.117 5.286.117 7.93-.176 5.904-.176 12.034-.176 17.882v3.375h.059c.059.956.117 3.15-.06 4.33 0 1.182 0 1.575-1 1.575H.501c-.236 0-.12-.45-.354-.844-.177-.169 0-.843 0-1.687 0-.618-.06-2.362-.06-3.15H.03V20.248c0-4.274.177-8.155.177-12.204V2.702c0-.732 0-1.519.235-1.687.177-.169.943 0 1.591 0 .177 0 2.004-.169 2.18 0h8.483c0 .168.236.731.236 1.124v5.568c0 .394-.236.562-.236.956-.176 1.35.236 2.924.236 4.443v21.257c0 1.912.177 2.531 0 4.218 0 1.182 0 1.575-1.002 1.575h-.823c-.237 0-.414-.225-.59-.225"/>
  </g>
  <g clip-path="url(#a)">
    <path d="M26.309.955c1.001.393 2.239 1.293 2.415 2.361.413.957.413 2.475.413 3.825v4.05c0 .954-.177 2.136-.177 3.486 0 1.743.177 3.823 0 5.342 0 1.069-.177 1.912-.59 2.53-1.118 1.35-2.415 1.745-5.066 1.52-.412 0-1.002-.17-1.002 0-.236 0 0 .562 0 .955v4.05c0 1.574-.236 3.261 0 4.835 0 1.52-.236 3.262 0 4.781 0 .225.178 1.013 0 1.18-.236.17-.824 0-1.237.17h-1.413c-.649-.17-1.18 0-1.415-.17-.177 0-.177-.787-.177-.955v-8.099c.177-5.848 0-12.316.177-17.489V2.136c0-.619 0-1.18.236-1.18.177-.17.766 0 1.415 0h3.829c.883.223 1.59-.17 2.592 0m-1.414 17.713c0-.169.235-.169.235-.337 0-.843-.235-1.743-.235-2.7V9.279c0-.844.235-1.744.235-2.7 0-.224-.235 0-.235-.224.235-.394.235-.338 0-.732 0-.393-.236-.73-.766-1.012-.648-.169-1.414 0-1.827 0 0 .225.178.393.178.788 0 .393-.178.787-.178 1.18 0 .169.178.394.178.563.176 4.499-.473 9.448-.178 13.271.884 0 2.239 0 2.416-.73.177-.225.177-.618.177-1.013"/>
  </g>
  <g clip-path="url(#a)">
    <path d="M42.486 40.47h-3.377v.06c-.957.058-3.152.117-4.333-.06-1.182 0-1.576 0-1.576-1v-2.71c0-.235.45-.117.844-.353.169-.177.844 0 1.688 0 .62 0 2.364-.06 3.153-.06v-.058h4.724a.35.35 0 01.346.41c-.033.182-.046.399.018.587.11.333.347 2.59.107 3.094 0 0-1.084.089-1.594.089"/>
  </g>
  <g clip-path="url(#a)">
    <path d="M43.982 3.084c.648 1.099.648 2.517.648 3.753 0 .916-.236 1.877-.236 2.609v4.99c0 .137-.06.137-.118.09-.059 0-.059-.046-.059-.09v.64c.177 3.707-.235 7.918 0 11.946 0 1.281.059 2.655-.589 3.753-.412.961-1.355 1.693-2.828 2.197a4.93 4.93 0 01-1.59.275c-.177 0-.413-.138-.59-.138-.235 0-.412.138-.589.138-.059 0-.059 0-.118-.046a.526.526 0 00-.295-.092l-.235.138c-.118 0-.295-.092-.589-.275h-.766l-.412-.32a7.413 7.413 0 01-1.414-1.099c-.413-.32-.177-.412-.59-.915-.412-1.281-.412-3.387-.412-4.99.177-3.661.177-7.322.177-11.03.236-2.06.236-4.623.236-6.224.176-.687.176-1.42.176-2.015 0-.686-.176-1.373 0-2.06.413-1.876 1.945-2.928 4.596-3.249.648 0 1.001 0 1.237.32 0-.32 1.768-.366 1.591.137a.615.615 0 01.412-.136c.177 0 1.001.274 1.414.594l.59.504c.176.137.176.457.353.595m-3.948 26.464c.177-.686 0-1.418 0-2.197.177-2.335.177-4.35.177-6.502 0-2.976 0-5.54.177-8.287 0-2.335 0-4.167.236-6.044 0-.687 0-1.694-.236-2.198-.177-.32-.943-.457-1.355-.457-1.65.229-1.237 1.831-1.237 3.113 0 .778-.178 1.373-.178 1.877s.178.778.178 1.1c-.178 1.419-.178 2.334-.178 3.57 0 1.694.178 3.892 0 5.907 0 1.42-.235 2.793-.235 4.212v4.35c0 1.099-.236 1.832.648 2.152.766.32 1.768-.091 2.003-.595"/>
  </g>
  <g clip-path="url(#a)">
    <path d="M90.016 36.108c.236.844-.176 2.137 0 3.093v.563c-.176.393-1.355.168-1.59.562-.177 0 0-.169-.177-.169-.235-.225-.59.17-.59-.225-.411.225-1.413.394-1.648 0-.178-.168 0-.73 0-1.35 0-.168-.178-.168-.178-.337v-3.262c0-.224-.766-.224-1.178-.224-.884-.17-1.178.224-1.827 0 .178.843 0 2.699 0 4.048v.563l-.176.394c-.177.168-.354.056-.53.056-.177 0-.237 0-.295-.056h-1.178c-.236 0-1.414.168-1.65 0-.177-.225 0-.563 0-.957v-.786c0-.62-.177-1.07 0-1.688v-.787c0-.168.236-.394.236-.563 0-.224-.237-.224 0-.393.177-.957 0-1.912.177-2.869 0-.281.059-.45.235-.561 0-.957.176-1.744.176-2.475.177-.844 0-1.462.177-2.306 0-1.124 0-2.08.236-3.43 0-.225.177-.562.177-.788a.413.413 0 00-.119-.28c-.058-.057-.058-.057-.058-.114 0-.168.177-.337.177-.562.236-.73.236-1.462.236-2.305 0-.619.176-1.294.176-1.687.177-.844 0-1.687.177-2.307h.236v-2.868c.177-1.743.353-3.599.765-5.342h.032l.002-.021-.034.02V5.91c0-.731.237-2.081.237-3.036h.014l.008-.14a.803.803 0 01.02-.35V2.38a.791.791 0 01.135-.295.52.52 0 01.039.044l.118-.17.01-.098-.002-.005c-.024.128-.078.229-.165.229 0-.394-.177-.563 0-.731l.411-.226c.386 0 .772 0 .965.185l.215.04c.234-.225 1.649-.393 1.649 0 .176-.225.176 0 .354 0 .411-.281.706-.393.823-.393 0 .168.178.9.178 1.518l-.178.225c0 .113 0 .17.06.225l.118.112c.236.394 0 .788 0 1.181.236.394 0 1.294 0 1.688.058 0 .117.056.177.112 0 .057 0 .057.059.112v.394c0 .169.176.338.176.563v.562c0 .17-.176.17-.176.394s.116.393.411.562v1.912c0 .619.177 1.069.177 1.687v1.35c0 .057 0 .057.06.057.058.055.118.112.118.168.235.731-.59 1.687-.178 2.643.118.17.235.225.413.225.176.619 0 1.518 0 2.25.117.168.176.45.176.955.236 1.744.412 3.206.59 5.174.236 1.968.236 4.05.412 5.905 0 .394.176.563.176.956l-.176.226c0 .169.176.169.176.393v1.124c0 .395 0 .9.237 1.52 0 .393 0 .562.176.955zM87.113 6.665c.011-.081-.006-.138-.101-.138zm-5.086.2h-.024c0 .036.007.07.017.104zm-.024.393a.197.197 0 00-.03.192zm3.654 22.552c-.236-1.125-.649-2.644-.649-3.993v-.957c-.177-.956-.177-2.473-.353-3.43-.236-.843-.236-2.08-.413-2.7 0 .62-.234.732-.412 1.125l.178.226-.178.169.178.225c0 .393-.178.562-.178.955v.957l-.589 7.254v.956c0 .394-.235.337-.235.563 0 .168.235 0 .412 0 .412 0 1.944.45 2.239.168z"/>
  </g>
  <g clip-path="url(#a)">
    <path d="M104.998 25.254c.176 3.825 0 8.042.176 11.866v1.743c0 .62 0 1.406-.176 1.406-.236.225-2.534.225-3.182.225h-.825c0-.225-.235-1.237-.235-1.63 0-2.306.235-5.512 0-8.493v-7.704c0-.394.235-1.18 0-1.405h-.59c-.235 0-.471.224-.647.224h-.59c-.883.225-1.06.732-1.06 1.575 0 1.575.177 3.15.177 4.556 0 .168-.177.393-.177.562 0 1.406.177 2.98.177 4.161 0 .225-.177.45-.177.619l.177.225v3.543c0 .843.176 1.743 0 2.362 0 1.405-.413 1.405-1.65 1.405H94.51c-.176 0-.648.17-.883 0l-.119-.337c-.058-.112-.058-.281-.058-.506 0-.394.412-.73.412-1.35.177-1.069 0-2.586 0-4.162-.235-2.755-.235-4.891-.235-7.535 0-1.35 0-2.869.235-4.162.177-.619 0-1.35.472-1.574.118-.112.176-.17.235-.17h.118c.236-.393 0-.617.412-.617-.176-.169.707-.338.707-.62-.058-.056-.176-.111-.353-.28-.177-.169-.47-.282-.53-.45-.413-.394-.59-.787-.884-.957v-.168c0-.169-.118-.112-.177-.281v-.226c-.235 0 0-.168 0-.393 0-.393-.235-.956-.235-1.35-.177-1.8 0-2.98 0-4.33-.177-2.193-.177-5.4 0-7.536 0-.618.412-1.405.707-1.8.648-.843 1.59-1.405 2.474-1.405a.46.46 0 01.294.112l.119.113a.462.462 0 00.294-.113l.118-.112h1.06c.236 0 .648-.168.648 0 .178 0 .178.393.354.393-.059-.056-.059-.056 0-.112 0-.056.059-.112.236-.281.47 0 .825.225 1.237.225V.285c.235 0 .235.225.235 0h2.121c.413 0 1.061-.168 1.061 0 .177.618.177 1.181.177 2.024 0 2.756 0 6.524.236 9.055 0 1.293-.236 2.136-.236 3.205 0 .844.236 1.406.236 2.137v2.024l-.236.226c-.059.056-.059.056 0 .112 0 .225.236 0 .236.225 0 .169-.236 0-.236.169 0 .28.412 0 .236.45-.236.393 0 .169 0 .393zm-5.657-7.48c.178-.28.59.17.825.17l.235-.17c.177-.055.296-.055.355 0v-6.41c0-.732-.178-1.688-.178-2.531 0-.17.178-.619.178-1.012 0-.169-.178-.169-.178-.394 0-.17.178-.563.178-.732l-.178-.28c0-.169.178-.563.178-.788 0-.168-.178-.168-.178-.337 0-.225.413-.844 0-1.237-.177-.169-.412.225-.883.225-.412 0-.766-.225-1.237 0-.236 0-.589.618-.589.787.059.056.059.056.059.113 0 .168 0 .224-.059.28v.169c0 .225.177.788 0 1.237 0 .62.177 1.52 0 2.363v3.936c0 1.294 0 2.137.177 3.206v.562c.058.168.235.168.293.337l.119.226h.471z"/>
  </g>
  <g clip-path="url(#a)">
    <path d="M75.424 2.36c0 .168.235.168.235.393 0 .169-.235.394-.235.562 0 .618.235 1.35 0 1.519-.177.225-1.415 0-1.592 0-.882 0-1.177.225-1.826 0 0 1.18.413 2.53.237 3.824v.619c0 .393-.237.675-.237 1.293 0 .225.237.394.237.619 0 .73-.237 1.294-.237 1.912.413.168.237.562.237.73v2.532c0 .956-.237 1.911-.237 2.867 0 .17.237.563.237.788-.295.225-.354.393-.237.562 0 .17.237.338.237.956-.178 0-.237.057-.237.169-.177.225 0 .787.237 1.18 0 .957-.237 2.082-.237 3.038 0 .225.237.394.237.563-.237 1.968-.414 3.655-.237 5.398v2.08c0 .077-.02.127-.047.167l-.11.394c.007.02.02.04.04.059.059.224.117.337.117.393 0 .464-.099.928-.074 1.486l.074.595c0 .393.177 2.7 0 2.868-.177 0-1.001.225-1.178 0h-.412c-.235-.169-.413 0-.589 0-.648.225-2.003 0-2.003-.169-.236-.225 0-.394 0-.562 0-.169-.06-.28-.236-.394 0-.618.236-1.294.236-1.912 0-2.53.177-5.398 0-8.098v-6.13c0-.62.177-1.462.177-2.306l-.118-.169c-.06-.056-.06-.168-.06-.393.178-.168.354-.168.354-.563 0-.169-.176-.393-.176-.562-.177-.618 0-1.18 0-1.912v-1.575c-.177-.618 0-1.068 0-1.687v-.618c-.16-1.563.107-3.081.037-4.878l-.037-.634c0-.225.176-.618.176-.787 0-.393-.176-.562-.176-.787 0-.731.47-.956-.413-.956h-2.003c-.177 0-.825 0-.825-.17V3.316c0-.112.059-.224.118-.281l.028-.026-.028-.367-.118-.113c0-.169.235-.394.235-.563 0-.393-.412-.393 0-.787 0-.168.178 0 .59 0 .177 0 .235 0 .294-.056l.118-.112c.177 0 1.002 0 1.179.168.412 0 .235 0 .412-.168.118 0 .236.056.295.112s.059.056.118.056.235-.056.412-.168c.117 0 .177.056.177.112v.056c.412 0 .589-.168.824-.168l.177.168.236-.168c.412 0 1.001.168 1.178 0 .413 0 1.001.168 1.414.168.177 0 .412-.168.825-.168.412.168.588.168.766.168a.548.548 0 00.412-.168c.177 0 0 .168.177.168.236 0 .648-.168.825 0 0 .225-.177.225 0 .619 0 .113.059.168.118.168h.117c0 .17-.235.17-.235.394zm-3.416-1.07c-.053-.067-.119-.112-.179-.112a.288.288 0 00-.068.113z"/>
  </g>
  <g clip-path="url(#a)">
    <path d="M57.272 5.798c0-.62-.118-1.407-.767-1.407-1.59-.393-2.062.956-2.062 2.306 0 .394.236.73.236 1.238l-.236.169c0 .73.472 1.743.472 2.698-.236 2.081 0 4.387 0 6.58-.353.506.354 1.912-.472 1.631.236.506.236.9.472 1.519v.899l-.236.17c-.176.168-.236.28-.236.337 0 .169 0 1.293.236 1.293l.236.169c.177.45 0 1.012 0 1.63h-.236c0 .17.236.788 0 .957v.168c.185 0 .225.728.12 1.04.02.116.036.229.052.327a.111.111 0 01.064-.017c.067.742.016 1.45-.06 2.144l-.055 2.737a.753.753 0 01.115-.382c.177.394 0 .787 0 1.181 0 .14 0 .049-.133.013l-.007.348v.001c.06.403-.045.678.14.988.177.618-.236 1.406 0 1.8.06 0 .118.056.235.168l.12.169.41.112c.414.057.59.112.65.112.942-.224 1.354-1.63.942-2.923-.177-.394 0-.957 0-1.575v-2.756c0-.225.353-.393.353-.562h-.177c-.117 0-.176-.057-.176-.17v-.393c0-.618-.177-2.08 0-2.362 0-.088.355-.176.694-.216l-.008-.062 1.416.114c.04-.003.083-.004.137-.004.234 0 1.944-.113 2.062 0 .295.168.295 1.518.295 1.968v6.748c0 1.631.058 3.318-.826 3.318 0 .282-.235.282-.411.45v.338c-.178.225-.472.225-.65.394-.647.618-1.412 1.011-2.356 1.18-.413.17-.942.17-1.12.17-.411 0-1.413.168-1.826 0a.416.416 0 00-.117-.226l-.119-.113-.176.17c-.176 0-.59-.17-.766-.17-.295-.225-.295-.225-.295-.393h-.53c0-.28-.058-.45-.236-.45 0-.168-.176 0-.176-.168-.118 0-.176-.057-.176-.169 0 0-.19-.043-.395-.22a.734.734 0 00-.077-.005v-.067a1.478 1.478 0 01-.337-.568l-.135.129c-.117 0-.176-.113-.176-.338v-.337c-.176-.17-.825-1.687-.176-1.687-.65-.506-.414-1.406-.414-2.137-.176-1.968 0-4.555 0-7.087 0-.168.236 0 .236-.168 0-.169-.236 0-.236-.169h.236a.421.421 0 00-.117-.28l-.119-.113.236-.17c0-.224-.236-.393-.236-.787v-.843c.2-.954.062-2.028.015-2.881V21.3a8.049 8.049 0 01-.015-.43l.015-.025v-.706l-.015-.001.015-.013v-.288c-.043-.21-.015-.46-.015-.655l.015.016V6.115h.06c-.022-.84.038-1.66.339-2.286C51.91 1.86 53.796.68 56.329.68c.943 0 2.18.337 2.828.73.177.226.354.45.649.62.117 0 .235.056.353.224 1.119.845 1.238 2.474 1.238 4.105v.17h-.178c0 .393.178.899.178 1.406.176 1.63.176 3.262.176 4.78v1.068h-2.828c-.176 0-.59 0-.766-.281-.176 0 0-.73-.176-1.35 0-.394-.531-.618-.531-1.125.412-.618 0-1.406 0-1.8zm-2.477 26.83c.003-.058.003-.112.003-.165l-.003.164z"/>
  </g>
  <g clip-path="url(#a)" opacity=".88">
    <path fill="#7abc2f" d="M165.346 36.108c.235.844-.177 2.137 0 3.093v.563c-.177.393-1.355.168-1.591.562-.177 0 0-.169-.177-.169-.235-.225-.59.17-.59-.225-.411.225-1.413.394-1.648 0-.178-.168 0-.73 0-1.35 0-.168-.178-.168-.178-.337v-3.262c0-.224-.765-.224-1.178-.224-.883-.17-1.178.224-1.826 0 .177.843 0 2.699 0 4.048v.563l-.177.394c-.176.168-.353.056-.53.056-.177 0-.235 0-.294-.056h-1.179c-.235 0-1.414.168-1.65 0-.176-.225 0-.563 0-.957v-.787c0-.619-.176-1.068 0-1.687v-.787c0-.169.236-.394.236-.563 0-.224-.235-.224 0-.393.177-.957 0-1.913.177-2.869 0-.281.059-.45.235-.561 0-.957.178-1.744.178-2.475.176-.844 0-1.462.176-2.306 0-1.124 0-2.08.236-3.43 0-.225.177-.562.177-.788a.418.418 0 00-.118-.28c-.06-.057-.06-.057-.06-.114 0-.168.178-.337.178-.562.235-.73.235-1.462.235-2.305 0-.619.177-1.294.177-1.687l.087-.964c.006-.498-.019-.963.09-1.343h.032l.203-2.248v-.62c.09-.895.183-1.821.305-2.746l.023-.245.44-3.229c.017-.747.234-2.028.234-2.946h.1v-.008c-.14-.078-.103-.482.035-.718l.042-.849s.203-.082.434-.073a1.028 1.028 0 00-.022-.096c.413 0 .825 0 1.002.226l-.002.016c.063-.002.125-.004.187-.008l-.008-.008c.235-.226 1.649-.394 1.649 0 .154-.195.173-.053.291-.011l.089-.007c.398-.267.683-.376.799-.376 0 .168.176.9.176 1.518l-.176.225c0 .113 0 .169.058.225l.118.112c.236.394 0 .788 0 1.181.236.394 0 1.294 0 1.688.058 0 .118.056.177.112 0 .057 0 .057.059.112v.394c0 .169.176.338.176.563v.562c0 .17-.176.17-.176.394s.117.393.412.562v1.912c0 .619.177 1.069.177 1.687v1.35c0 .057 0 .057.06.057.058.055.117.112.117.168.235.731-.59 1.687-.177 2.643.118.17.235.225.412.225.177.619 0 1.518 0 2.25.118.168.177.45.177.955a107.6 107.6 0 01.59 5.174c.235 1.968.235 4.05.412 5.905 0 .394.176.563.176.956l-.176.226c0 .168.176.168.176.393v1.124c0 .395 0 .9.236 1.52 0 .393 0 .562.177.955zm-4.36-6.298c-.236-1.125-.648-2.644-.648-3.993v-.957c-.177-.956-.177-2.473-.354-3.43-.235-.843-.235-2.08-.412-2.7 0 .62-.235.732-.412 1.125l.177.226-.177.169.177.224c0 .394-.177.563-.177.956v.957l-.59 7.254v.956c0 .394-.235.337-.235.563 0 .168.236 0 .412 0 .413 0 1.945.449 2.239.168zm.965-27.46a.414.414 0 01.041-.036c.08 0 .041-.044-.04-.074zm.036 2.828a.374.374 0 01-.04-.049v.451l.04.036zm-.04-.244c.066-.115.218-.217.218-.319-.107 0-.15.123-.218.22z"/>
  </g>
  <g clip-path="url(#a)">
    <path d="M122.29 40.198c-.047-.034-.076-.028 0 0"/>
  </g>
  <g clip-path="url(#a)" opacity=".88">
    <path fill="#7abc2f" d="M122.305 40.206h-.16c-.236.225-.647 0-.825 0h-5.419c-.413 0-.826.225-1.061 0V37.73c.235-.618 0-1.518 0-1.743h.118c-.236-.17.117-.9-.118-1.518v-5.624c0-.73.235-1.069 0-1.912V23.11c.235-.844 0-1.574 0-1.969 0-.393.235-.562.235-.956 0-.168-.235-.393-.235-.561v-1.576c.059 0 .059-.055.059-.112v-.057h-.059c0-.168.235-.168.235-.392.178-.17 0-.563 0-.732v-.393c0-.226-.235-.394 0-.788.178-.169 0 0 0-.394v-1.35c.178-.168 0 0 .178.226.235-.226-.178-.394-.178-.788v-3.261c0-.619-.471-1.181.178-1.181 0-.17 0 0-.178-.17l.178-.618v-.394c0-.393-.413-.9-.413-1.518 0-1.125.235-2.699 0-3.655 0-.394 0-.788.235-.788l.178-.393c.235 0 .412.225.648.225.41 0 1.177-.45 1.413.168 0-.393.177-.168.354-.168 1.236 0 2.356-.225 3.476-.225.648 0 1.944.225 2.592 0h1.002c0 .225.235.787.235 1.18v2.307c-.235.393-1.001.224-1.413.224-.236 0-.825.17-1.237.17h-2.004c-.236 0-.413-.17-.589-.17l-.118.113c-.059.056-.118.056-.294.056-.177-.112-.236-.28-.236-.562-.412.169-.178.9-.178 1.743v12.071l.071.01c.112-.039.143-.158.343-.158h3.24c.413 0 1.178-.226 1.414 0 .176.168 0 .787 0 .956v2.53c-.236.394-1.592.169-2.239.169h-2.003c-.236 0-.648-.169-.826-.169l-.176.337c0 .226.176.62.176 1.013v1.124c.178.395.178 1.575 0 2.306-.176 2.925.178 5.399 0 9.279 0 .17-.176.676-.176.957 0-.056.118-.056.295-.056.118 0 .235 0 .295.056l.176-.225h.236c2.062 0 4.006.225 5.833 0 .176.843 0 2.137.176 3.092 0 .506-.235.788-.766.788-.235 0-2.297.45-2.415.169l-.178-.281a.256.256 0 00-.075-.113zm-3.508-38.483a.987.987 0 00-.069-.04v.04zm-1.259 38.242a.15.15 0 00.13.072.478.478 0 00-.009-.09z"/>
  </g>
  <g clip-path="url(#a)" opacity=".88">
    <path fill="#7abc2f" d="M151.827 37.093c0 .165 0 .277-.06.332l.06.055c0 .388-.184.942 0 1.109 0 .388-.184.942-.184 1.33 0 .166.184.388.184.776-.184.388-.184.554-.184.72 0 .166.061.277.184.388 0 .166-.184 0-.184.166 0 .222.184.61 0 .776-.245 0-.245-.167-.675 0a.228.228 0 00-.153.047l-.031.063v.112c-.136 0-.172-.12-.279-.184a13.704 13.704 0 01-.149-.038h-.002c-.185 0-.185.222-.43.222-.184 0-.43-.222-.614-.222-.675 0-1.473.222-1.656 0-.247-.167 0-1.33 0-1.496 0-.512-.094-.813-.108-1.113a1.315 1.315 0 00-.384-.328h-1.474c-.306 0-.982 0-1.657-.055h-1.228c-.43 0-.737-.222-1.412-.222-.245 0-.43.222-.674.222-.369 0-.615 0-.738-.056v-.11h-6.937c-.061.166-.552.11-.981.055v.443c0 .388 0 1.718.06 2.106 0 .443-3.068-.167-3.068.222h-1.412l-.061-1.552.122-4.268c0-.166.062-.498.062-.664 0-.167-.247-.278-.062-.333 0-.055 0-.055.062-.11.122.055.429.055.92.055v-.056c.122.056.369.056.736.056h.553c0-.167-.123-.167-.061-.389.061-.165.491-.165.552-.388.061-.166-.184-.055-.123-.221 0-.056.062-.11.184-.222l.123-.11v-.278c0-.056 0-.056-.06-.11.184-.333.244-.665.306-.942.062-.222.246-.167.307-.333.184-.388-.245-.443-.185-.61.062-.221.246-.332.43-.72 0-.055-.061-.222-.061-.388v-.221c0-.056.061-.111.184-.222.062-.056.062-.056.124-.056.184-.387-.062-.997.184-1.385.06-.222 0 0 .184.055.244-1.552.859-2.771 1.288-4.267.185-.72-.061-1.386.246-1.884.061-.167.185-.277.246-.333.061-.221-.061-.443 0-.83.061 0 .061 0 .123-.056 0 0 .06-.111.122-.278.062-.387.062-.942.062-1.108l.184-.942c.06-.222.245-.61.184-.998 0-.166.061-.166.061-.332 0-.222.246-.61.184-.998v-.166c.062-.388.246-.555-.06-.776.429-.72.183-2.05.367-2.66 0-.166.246-.388.246-.554.061-.166-.184-.166-.123-.388v-.166c.061-.388.307-.776.368-1.164-.184-.61-.184-1.275 0-2.106l.123-2.05c.061-.61.307-.943.307-1.33 0-.388.061-.555-.184-.943.062-1.052.368-2.216.184-3.27h.245v-.11h.676l1.473-.222c.43 0 .921 0 1.35.055.062.056.123.056.185.056h.675c.184 0 .246 0 .308-.056.981 0 1.902-.055 2.884-.055.921 0 1.597.055 2.517.11.491-.055.921-.11 1.352.056.183-.055.306-.055.367.055.184.222 0 .388 0 .61-.184.167 0 .388 0 .555.062.166 0 .166 0 .387 0 .665.245 2.106-.246 2.384v.609c-.184.72 0 1.44 0 2.272-.184 3.325 0 6.706-.184 10.252-.246.832 0 1.719 0 2.44 0 .387-.246.775-.246.997v3.602c0 1.108-.183 2.272 0 3.38 0 .832-.183 1.497-.183 2.328 0 .166.183.166.183.333 0 .608-.183 1.108-.183 1.718 0 .609.183 1.33.183 1.717 0 .222-.183.222-.183.389.061 0 .061.055.061.221 0 .056 0 .11-.061.166.123 0 .183-.055.183-.11 0 .155.055.165.061.212l.085.008c.525-.02-.122-.22.346-.22h1.473a.5.5 0 01.307.11l.123.111a.502.502 0 00.307-.11l.122-.111c.185 0 .43.221.615.221.43 0 .43-.388.859 0 .184 0 0 .167 0 .554 0 .167 0 .222.061.277l.123.111zm-8.287-19.287c-.185-4.266-.307-8.534-.123-12.746-1.043-.055-2.087-.055-3.254-.055 0 .166.062.277.062.444-.062 1.273-.369 2.216-.43 3.158-.184 2.05-.43 4.101-.675 6.152l-.122.776c-.062.11-.062.276-.062.442v.056c-.184 1.385-.43 2.827-.675 4.212h-.062c-.184.222 0 1.053 0 1.275-.062.166-.368.498-.368.72-.246 1.163-.306 2.383-.615 3.546a95.26 95.26 0 01-1.473 5.654c-.43 1.33-.613 2.493-1.166 3.602l-.184.554c2.701 0 8.472-.055 8.472.166v.056h.49c0-1.497 0-2.772.185-4.545zm8.164 19.402l-.044.04.044.072z"/>
  </g>
  <g clip-path="url(#a)">
    <path d="M36.73 56.611V50.79h.946v2.428h1.144l1.618-2.428h1.07l-1.925 2.836 2.074 2.985h-1.07l-1.75-2.52h-1.161v2.52z"/>
  </g>
</svg>
